<?xml version="1.0" encoding="UTF-8" standalone="no"?>
<svg
   xmlns:svg="http://www.w3.org/2000/svg"
   xmlns="http://www.w3.org/2000/svg"
   viewBox="0 0 542.64294 30.073872"
   height="30.073872"
   width="542.64294"
   id="svg2"
   version="1.1">
  <defs
     id="defs6">
    <rect
       x="13.101452"
       y="23.372028"
       width="186.33598"
       height="64.734055"
       id="rect825" />
  </defs>
  <g
     id="g8">
    <path
       d="M 119.60352 0 C 110.80354 0 104.48438 6.4404195 104.48438 15.400391 C 104.48438 19.560377 105.72321 22.839697 108.2832 25.679688 C 111.04319 28.719679 114.44501 30.080078 119.125 30.080078 C 126.20498 30.080078 130.28469 26.640448 131.80469 19.480469 L 129.32422 18.880859 C 128.24422 24.440842 125.04335 27.599609 120.44336 27.599609 C 115.00338 27.599609 112.44336 23.47966 112.44336 14.679688 C 112.44336 6.3997139 115.00385 2.0800781 119.92383 2.0800781 C 124.36382 2.0800781 127.28398 5.1598652 129.08398 11.839844 L 131.20312 11.599609 L 130.80469 0.16015625 L 129.08398 0.16015625 L 126.92383 2.1191406 C 124.28384 0.51914561 122.44351 -2.9605947e-16 119.60352 0 z M 150.00195 0 L 140.92188 21.199219 C 139.08187 25.519208 137.60218 27.080312 135.24219 27.320312 L 135.24219 29.480469 L 146.80273 29.480469 L 146.80273 27.320312 C 143.92274 27.160325 142.80273 26.400542 142.80273 24.560547 C 142.76273 23.880549 142.9614 23.439295 143.44141 22.279297 L 144.08203 20.759766 L 154.04297 20.759766 L 155.5625 24.679688 C 155.84249 25.399687 156.08297 26.000311 156.04297 26.320312 C 156.04297 27.12031 155.52265 27.159297 153.72266 27.279297 L 153.04297 27.320312 L 153.04297 29.480469 L 167.08203 29.480469 L 167.08203 27.320312 C 164.80203 27.240302 164.16227 26.840777 163.32227 24.800781 L 153.04297 0 L 150.00195 0 z M 308.03125 0 C 298.95128 0 292.91211 7.0804994 292.91211 15.480469 C 292.91211 23.960444 299.15208 30.080078 307.83203 30.080078 C 317.23202 30.080078 323.11133 23.639429 323.11133 15.439453 C 323.11133 6.9594817 316.91121 -2.3684758e-15 308.03125 0 z M 428.66602 0 C 419.86603 0 413.54492 6.4404195 413.54492 15.400391 C 413.54492 19.560377 414.78572 22.839697 417.3457 25.679688 C 420.1057 28.71968 423.50555 30.080078 428.18555 30.080078 C 435.26551 30.080078 439.34525 26.640448 440.86523 19.480469 L 438.38477 18.880859 C 437.30477 24.440842 434.10585 27.599609 429.50586 27.599609 C 424.06587 27.599609 421.50586 23.47966 421.50586 14.679688 C 421.50586 6.3997139 424.06636 2.0800781 428.98633 2.0800781 C 433.42633 2.0800781 436.34648 5.1598652 438.14648 11.839844 L 440.26562 11.599609 L 439.86523 0.16015625 L 438.14648 0.16015625 L 435.98633 2.1191406 C 433.34633 0.51914561 431.506 0 428.66602 0 z M 0.59960938 0.59960938 L 0 11.439453 L 2.1191406 11.439453 C 2.6391393 8.4794634 3.2001601 6.919525 4.1601562 5.5195312 C 5.4401537 3.5995349 6.9607862 2.6796875 8.8007812 2.6796875 C 10.000777 2.6796875 10.240234 2.9603062 10.240234 4.3203125 L 10.240234 23.720703 C 10.240234 26.240696 10.240925 26.400702 9.9609375 26.720703 C 9.6009375 27.1607 8.7606187 27.320313 6.640625 27.320312 L 5.7597656 27.320312 L 5.7597656 29.480469 L 21.919922 29.480469 L 21.919922 27.320312 L 21.039062 27.320312 C 18.919069 27.320312 18.080703 27.160712 17.720703 26.720703 C 17.440716 26.40069 17.439453 26.240696 17.439453 23.720703 L 17.439453 4.3203125 C 17.439453 2.9603176 17.680863 2.6796875 18.880859 2.6796875 C 20.60085 2.6796875 21.919221 3.3990688 23.199219 5.0390625 C 24.319214 6.5190575 24.960547 8.1994647 25.560547 11.439453 L 27.679688 11.439453 L 27.080078 0.59960938 L 0.59960938 0.59960938 z M 32.425781 0.59960938 L 32.425781 2.7597656 L 33.025391 2.7597656 C 35.105382 2.7597656 35.946645 2.9193624 36.306641 3.359375 C 36.586629 3.6793876 36.585938 3.8393825 36.585938 6.359375 L 36.585938 23.720703 C 36.585938 26.240696 36.586629 26.400702 36.306641 26.720703 C 35.946641 27.1607 35.105382 27.320313 33.025391 27.320312 L 32.425781 27.320312 L 32.425781 29.480469 L 47.986328 29.480469 L 47.986328 27.320312 L 47.386719 27.320312 C 45.306728 27.320312 44.426402 27.160712 44.066406 26.720703 C 43.786418 26.40069 43.785156 26.280695 43.785156 23.720703 L 43.785156 6.359375 C 43.785156 3.7993838 43.786418 3.6793725 44.066406 3.359375 C 44.426406 2.9193738 45.306728 2.7597656 47.386719 2.7597656 L 47.986328 2.7597656 L 47.986328 0.59960938 L 32.425781 0.59960938 z M 52.759766 0.59960938 L 52.759766 2.8007812 C 54.559759 2.8407682 56.000005 3.5990662 57 5.0390625 L 57 20.800781 C 57 26.880764 55.839679 27.119299 52.679688 27.279297 L 52.679688 29.439453 L 64.080078 29.439453 L 64.080078 27.279297 C 62.360087 27.199287 61.360702 26.879217 60.720703 26.199219 C 59.880707 25.31922 59.679688 24.320772 59.679688 20.800781 L 59.679688 7.640625 L 78.28125 29.759766 L 80.960938 29.759766 L 80.960938 9.2792969 C 80.960938 5.719307 81.160015 4.7198425 82 3.8398438 C 82.639995 3.1598464 83.761333 2.7997644 85.361328 2.7597656 L 85.361328 0.59960938 L 73.960938 0.59960938 L 73.960938 2.7597656 C 75.520933 2.7997526 76.600235 3.1598464 77.240234 3.8398438 C 78.08023 4.7198426 78.28125 5.7593095 78.28125 9.2792969 L 78.28125 18.679688 L 62.839844 0.59960938 L 52.759766 0.59960938 z M 170.07227 0.59960938 L 170.07227 2.8007812 C 171.87226 2.8407682 173.31251 3.5990662 174.3125 5.0390625 L 174.3125 20.800781 C 174.3125 26.880764 173.15218 27.119299 169.99219 27.279297 L 169.99219 29.439453 L 181.39258 29.439453 L 181.39258 27.279297 C 179.67258 27.199287 178.6732 26.879217 178.0332 26.199219 C 177.19321 25.31922 176.99219 24.320772 176.99219 20.800781 L 176.99219 7.640625 L 195.5918 29.759766 L 198.27344 29.759766 L 198.27344 9.2792969 C 198.27344 5.719307 198.47251 4.7198425 199.3125 3.8398438 C 199.9525 3.1598464 201.07188 2.7997644 202.67188 2.7597656 L 202.67188 0.59960938 L 191.27344 0.59960938 L 191.27344 2.7597656 C 192.83344 2.7997526 193.91273 3.1598464 194.55273 3.8398438 C 195.39273 4.7198426 195.5918 5.7593095 195.5918 9.2792969 L 195.5918 18.679688 L 180.15234 0.59960938 L 170.07227 0.59960938 z M 221.15625 0.59960938 L 221.15625 2.8007812 L 221.75586 2.8007812 C 223.83585 2.8007812 224.67711 2.9593612 225.03711 3.359375 C 225.3171 3.719375 225.31641 3.8403993 225.31641 6.4003906 L 225.31641 23.720703 C 225.31641 26.280695 225.3171 26.399766 225.03711 26.759766 C 224.67711 27.159764 223.83585 27.320313 221.75586 27.320312 L 221.15625 27.320312 L 221.15625 29.480469 L 236.99609 29.480469 L 236.99609 27.320312 L 236.11523 27.320312 C 233.99524 27.320312 233.15688 27.159776 232.79688 26.759766 C 232.5169 26.399766 232.51562 26.280695 232.51562 23.720703 L 232.51562 17.080078 L 236.99609 17.080078 C 245.35606 17.080078 249.5957 14.240607 249.5957 8.640625 C 249.5957 3.0806451 245.51709 0.59960938 237.03711 0.59960938 L 221.15625 0.59960938 z M 254.38672 0.59960938 L 254.38672 2.7597656 L 254.98633 2.7597656 C 257.06632 2.7597656 257.90758 2.9193624 258.26758 3.359375 C 258.54764 3.6793876 258.54688 3.8403993 258.54688 6.4003906 L 258.54688 23.720703 C 258.54688 26.240696 258.54764 26.400702 258.26758 26.720703 C 257.90776 27.1607 257.06632 27.320313 254.98633 27.320312 L 254.38672 27.320312 L 254.38672 29.480469 L 269.94727 29.480469 L 269.94727 27.320312 L 269.34766 27.320312 C 267.26767 27.320312 266.38734 27.160712 266.02734 26.720703 C 265.74728 26.40069 265.74609 26.280695 265.74609 23.720703 L 265.74609 15.919922 L 276.1875 15.919922 L 276.1875 23.720703 C 276.1875 26.240696 276.18631 26.400702 275.90625 26.720703 C 275.54606 27.1607 274.70694 27.320313 272.62695 27.320312 L 272.02734 27.320312 L 272.02734 29.480469 L 287.58594 29.480469 L 287.58594 27.320312 L 286.98633 27.320312 C 284.90634 27.320312 284.02602 27.160712 283.66602 26.720703 C 283.38596 26.40069 283.38672 26.280695 283.38672 23.720703 L 283.38672 6.4003906 C 283.38672 3.8403993 283.38596 3.6793725 283.66602 3.359375 C 284.02621 2.9193738 284.90634 2.7597656 286.98633 2.7597656 L 287.58594 2.7597656 L 287.58594 0.59960938 L 272.02734 0.59960938 L 272.02734 2.7597656 L 272.62695 2.7597656 C 274.70694 2.7597656 275.54625 2.9193624 275.90625 3.359375 C 276.18631 3.6793876 276.1875 3.8804019 276.1875 6.4003906 L 276.1875 13.519531 L 265.74609 13.519531 L 265.74609 6.4003906 C 265.74609 3.8403993 265.74728 3.6793725 266.02734 3.359375 C 266.38715 2.9193738 267.26767 2.7597656 269.34766 2.7597656 L 269.94727 2.7597656 L 269.94727 0.59960938 L 254.38672 0.59960938 z M 328.43164 0.59960938 L 328.43164 2.8007812 C 330.2316 2.8407682 331.67185 3.5990662 332.67188 5.0390625 L 332.67188 20.800781 C 332.67188 26.880764 331.51154 27.119299 328.35156 27.279297 L 328.35156 29.439453 L 339.75195 29.439453 L 339.75195 27.279297 C 338.03196 27.199287 337.03064 26.879217 336.39062 26.199219 C 335.55063 25.31922 335.35156 24.320772 335.35156 20.800781 L 335.35156 7.640625 L 353.95117 29.759766 L 356.63086 29.759766 L 356.63086 9.2792969 C 356.63086 5.719307 356.83179 4.7198425 357.67188 3.8398438 C 358.31185 3.1598464 359.43122 2.7997644 361.03125 2.7597656 L 361.03125 0.59960938 L 349.63086 0.59960938 L 349.63086 2.7597656 C 351.19082 2.7997526 352.27209 3.1598464 352.91211 3.8398438 C 353.75211 4.7198426 353.95117 5.7593095 353.95117 9.2792969 L 353.95117 18.679688 L 338.51172 0.59960938 L 328.43164 0.59960938 z M 364.71094 0.59960938 L 364.71094 2.7597656 L 365.31055 2.7597656 C 367.39053 2.7597656 368.2318 2.9193624 368.5918 3.359375 C 368.87187 3.6793876 368.87109 3.8393825 368.87109 6.359375 L 368.87109 23.720703 C 368.87109 26.240696 368.87187 26.400702 368.5918 26.720703 C 368.23199 27.1607 367.39053 27.320313 365.31055 27.320312 L 364.71094 27.320312 L 364.71094 29.480469 L 391.87109 29.480469 L 392.35156 18.720703 L 390.23047 18.720703 C 388.55047 24.720684 385.71108 27.320312 380.87109 27.320312 L 379.66992 27.320312 C 377.70994 27.320312 377.19094 27.239753 376.71094 26.759766 C 376.19091 26.279766 376.07031 25.839527 376.07031 24.519531 L 376.07031 15.640625 L 377.55078 15.640625 C 379.87077 15.640625 381.8315 17.640327 382.27148 21.320312 L 384.43164 21.320312 L 384.43164 7.7597656 L 382.27148 7.7597656 C 381.8315 11.439752 379.87077 13.439453 377.55078 13.439453 L 376.07031 13.439453 L 376.07031 6.1992188 C 376.07031 4.5592249 376.15077 4.1206212 376.4707 3.640625 C 376.91067 3.040625 377.8717 2.7597656 379.51172 2.7597656 L 380.63086 2.7597656 C 383.59084 2.7597656 386.0306 3.8407093 387.39062 5.7207031 C 388.23062 6.9206993 389.11094 8.9200048 389.71094 11 L 391.79102 11 L 391.55078 0.59960938 L 364.71094 0.59960938 z M 446.79883 0.59960938 L 446.79883 2.7597656 L 447.39844 2.7597656 C 449.47843 2.7597656 450.31969 2.9193624 450.67969 3.359375 C 450.95975 3.6793876 450.95898 3.8393825 450.95898 6.359375 L 450.95898 23.679688 C 450.95898 26.239679 450.95975 26.400702 450.67969 26.720703 C 450.3195 27.1607 449.47843 27.320313 447.39844 27.320312 L 446.79883 27.320312 L 446.79883 29.480469 L 473.59961 29.480469 L 474.08008 18.720703 L 471.95898 18.720703 C 471.15901 21.480692 470.43938 23.000317 469.35938 24.320312 C 467.71936 26.280304 465.43958 27.320312 462.59961 27.320312 L 461.75977 27.320312 C 459.79978 27.320312 459.27883 27.239753 458.79883 26.759766 C 458.27881 26.279766 458.16016 25.839527 458.16016 24.519531 L 458.16016 6.359375 C 458.16016 3.8393825 458.15939 3.6793725 458.43945 3.359375 C 458.79926 2.9193738 459.63979 2.7597656 461.75977 2.7597656 L 462.63867 2.7597656 L 462.63867 0.59960938 L 446.79883 0.59960938 z M 477.37305 0.59960938 L 477.37305 2.7597656 L 477.97461 2.7597656 C 480.05464 2.7597656 480.89391 2.9193624 481.25391 3.359375 C 481.53397 3.6793876 481.5332 3.8393825 481.5332 6.359375 L 481.5332 19.039062 C 481.5332 22.399051 481.81431 24.080475 482.57422 25.480469 C 484.21424 28.480462 488.0944 30.080078 493.73438 30.080078 C 498.85438 30.080078 501.93454 28.720615 503.89453 25.640625 C 505.01456 23.840628 505.33398 22.040301 505.33398 17.320312 L 505.33398 9.2792969 C 505.33398 5.7593095 505.53298 4.7198425 506.37305 3.8398438 C 507.01304 3.1598464 508.13439 2.7997644 509.73438 2.7597656 L 509.73438 0.59960938 L 498.33398 0.59960938 L 498.33398 2.7597656 C 499.89398 2.7997526 500.97329 3.1598464 501.61328 3.8398438 C 502.45328 4.7198426 502.6543 5.719307 502.6543 9.2792969 L 502.6543 17.320312 C 502.6543 20.600305 502.4928 22.159298 501.97266 23.279297 C 500.81268 25.799289 498.49385 27.080078 495.17383 27.080078 C 491.05385 27.080078 488.73438 25.600135 488.73438 19.160156 L 488.73438 6.359375 C 488.73438 3.8393825 488.73361 3.6793725 489.01367 3.359375 C 489.37348 2.9193738 490.25399 2.7597656 492.33398 2.7597656 L 492.93359 2.7597656 L 492.93359 0.59960938 L 477.37305 0.59960938 z M 513.8125 0.59960938 L 513.8125 2.7597656 L 514.41211 2.7597656 C 516.4921 2.7597656 517.33336 2.9203024 517.69336 3.3203125 C 517.97342 3.6803125 517.97266 3.7993838 517.97266 6.359375 L 517.97266 23.720703 C 517.97266 26.240696 517.97342 26.400702 517.69336 26.720703 C 517.33317 27.1607 516.4921 27.320313 514.41211 27.320312 L 513.8125 27.320312 L 513.8125 29.480469 L 530.01367 29.480469 C 534.13366 29.480469 536.29203 29.199306 538.33203 28.279297 C 540.89202 27.159302 542.57227 24.599913 542.57227 21.919922 C 542.57227 17.839933 539.33306 15.079295 533.37305 14.279297 C 538.77305 13.399302 541.25195 11.319675 541.25195 7.6796875 C 541.25195 5.3996951 540.05374 3.3192137 538.09375 2.1992188 C 535.89377 0.9592238 534.01196 0.59960938 529.25195 0.59960938 L 513.8125 0.59960938 z M 308.07227 2.0800781 C 312.87227 2.0800781 315.11133 7.5204965 315.11133 15.480469 C 315.11133 23.600444 312.63227 28 308.07227 28 C 302.95229 28 300.91211 22.240678 300.91211 14.720703 C 300.91211 6.9607284 303.03231 2.0800781 308.07227 2.0800781 z M 527.41211 2.7597656 L 528.61328 2.7597656 C 532.13327 2.7597656 534.01367 4.5198537 534.01367 7.8398438 C 534.01367 11.319832 532.29278 13.560547 527.13281 13.560547 L 525.17188 13.560547 L 525.17188 5.0800781 C 525.17188 2.9200819 526.13214 2.7597656 527.41211 2.7597656 z M 234.7168 2.8007812 L 236.31641 2.8007812 C 240.1164 2.8007812 241.87695 4.5996215 241.87695 8.5996094 C 241.87695 13.199592 239.99592 14.880859 234.83594 14.880859 L 232.51562 14.880859 L 232.51562 5.1992188 C 232.51562 3.2392275 232.9168 2.8007813 234.7168 2.8007812 z M 149.16211 8.5195312 L 153.04297 18.080078 L 145.12109 18.080078 L 149.16211 8.5195312 z M 525.17188 15.759766 L 527.93359 15.759766 C 533.17356 15.759766 534.93359 17.760484 534.93359 21.480469 C 534.93359 25.160459 532.93249 27.320313 528.8125 27.320312 L 527.61328 27.320312 C 525.4133 27.320312 525.17187 27.199757 525.17188 24.759766 L 525.17188 15.759766 z "
       style="font-style:normal;font-variant:normal;font-weight:bold;font-stretch:normal;font-size:10.5833px;font-family:'TeX Gyre Schola';-inkscape-font-specification:'TeX Gyre Schola Bold';text-align:center;letter-spacing:0.79375px;word-spacing:0px;text-anchor:middle;white-space:pre;stroke-width:3.77953"
       id="path840" />
  </g>
</svg>
